Coordinates
version=1
nRows=19
nColumns=34
inDegrees=yes

Units are S.I. units (second, meters, Newtons, ...)
If the header above contains a line with 'inDegrees', this indicates whether rotational values are in degrees (yes) or radians (no).

endheader
time	pelvis_tilt	pelvis_list	pelvis_rotation	pelvis_tx	pelvis_ty	pelvis_tz	hip_flexion_r	hip_adduction_r	hip_rotation_r	knee_angle_r	ankle_angle_r	subtalar_angle_r	mtp_angle_r	hip_flexion_l	hip_adduction_l	hip_rotation_l	knee_angle_l	ankle_angle_l	subtalar_angle_l	mtp_angle_l	lumbar_extension	lumbar_bending	lumbar_rotation	arm_flex_r	arm_add_r	arm_rot_r	elbow_flex_r	pro_sup_r	arm_flex_l	arm_add_l	arm_rot_l	elbow_flex_l	pro_sup_l
      0.00000000	      1.90737105	     -5.57993818	    115.43855205	     -0.01100429	      0.93803372	     -0.05048555	     -6.96003963	      2.03189887	     -1.41807543	     40.84815596	     10.77814650	     -2.40636349	      0.00000000	     34.87027864	      7.81659381	     -3.54081883	     26.95331407	     -0.60453740	     -9.65015587	      0.00000000	    -11.63195802	      6.04919343	     13.20441620	      4.79536759	    -37.63004716	     -6.69751358	     71.24075500	     98.22052062	    -57.31545630	    -67.50916587	    -96.21062473	     69.44449733	    101.30868734
      0.01886790	      2.93545303	     -4.71063537	    118.17664204	      0.01036998	      0.93464741	     -0.02789098	    -12.98696260	      0.65260481	     -3.35184786	     40.68283053	     10.17348526	      4.24047717	      0.00000000	     35.60647624	      6.50068416	     -5.84311142	     24.99717667	      2.28844772	     -6.80229661	      0.00000000	    -11.89618759	      5.08578277	     16.26579373	      1.04369295	    -37.86901976	    -10.54209177	     65.53619506	    100.23019266	    -52.63833085	    -59.79528238	    -91.36130908	     69.25456012	    102.05792165
      0.03773590	      4.52242867	     -4.07452006	    122.28634165	      0.01123644	      0.93940173	     -0.02037599	    -12.06736550	     -0.66724005	     -4.00599852	     53.80801234	     10.24192487	      6.88004940	      0.00000000	     36.70202000	      6.65434416	     -5.74751045	     24.80576072	      3.49695557	     -7.45976660	      0.00000000	    -11.69218160	      5.66213800	     16.88594741	     -2.58266073	    -35.67481020	    -19.60018001	     57.28209096	    100.58634323	    -56.12984981	    -55.83158750	    -96.78283096	     66.95946429	    102.14451236
      0.05660380	      5.02160842	     -3.02880105	    126.77897321	      0.02047806	      0.93789245	     -0.02100959	    -12.62901801	     -2.77797351	     -4.40521988	     67.93252919	     11.60045738	     10.60698262	      0.00000000	     37.49068903	      7.62215768	     -5.60740581	     26.53425019	      5.34476003	     -8.90023455	      0.00000000	    -11.25302463	      5.84146609	     17.60549813	     -5.35177441	    -32.47689905	    -26.92708893	     49.01583350	    102.08995294	    -61.69030954	    -52.12484793	   -103.62367942	     64.79093184	    102.40221038
      0.07547170	      4.48353763	     -1.36466184	    131.38552759	      0.02426586	      0.93695656	     -0.03843375	     -9.64688428	     -6.97162057	     -1.79213345	     89.96668643	     12.25197106	     15.85275336	      0.00000000	     36.72890516	      8.54916891	     -5.57694604	     29.48436363	     10.01515769	     -9.09733808	      0.00000000	    -10.12663954	      6.36869108	     16.26392273	    -10.36394748	    -28.70656904	    -33.98708414	     42.47080561	    103.91212997	    -71.16806430	    -52.14294251	   -114.72022935	     63.46187407	    102.25215488
      0.09433960	      4.97358294	      0.93239417	    136.30158179	      0.01970850	      0.93608580	     -0.05138927	     -5.97023060	    -10.16492734	      4.25910726	    108.39096956	     13.24107334	     22.09568817	      0.00000000	     35.26885594	      8.73693960	     -5.72988732	     30.36101048	     13.76599612	     -7.62335519	      0.00000000	     -9.20001519	      7.50222215	     13.85371190	    -15.55142744	    -24.18993355	    -38.56492314	     39.59000537	    104.95341398	    -84.45021671	    -54.31783860	   -128.92455226	     64.00573400	    101.59000891
      0.11320760	      4.86121291	      3.56269697	    141.37373982	      0.00966524	      0.93339793	     -0.06182244	     -0.10796860	    -12.80328576	     12.37948315	    120.27858908	     14.83313555	     26.82736799	      0.00000000	     33.70689259	      8.90738616	     -6.52957956	     31.93021975	     17.91569273	     -4.06810400	      0.00000000	     -9.86652043	      8.09084731	      9.70059205	    -17.98494939	    -20.05428534	    -40.87702169	     39.64424538	    107.27705117	    -94.99760857	    -55.75882861	   -140.27050446	     62.60914721	    100.65220239
      0.13207550	      4.77564786	      6.70140356	    145.78469030	     -0.00699844	      0.92585969	     -0.06662774	      6.72814117	    -14.13526095	     19.13140763	    126.98960964	     15.75363380	     30.79898234	      0.00000000	     33.64940571	      8.93261389	     -5.72665695	     36.17445619	     22.30368003	     -1.55292890	      0.00000000	    -10.42409084	      9.94830543	      4.75748199	    -21.54308429	    -16.91173687	    -43.58039990	     40.93877348	    108.55455684	   -102.28695368	    -55.96769334	   -145.49943435	     58.15277236	     99.81794548
      0.15094340	      4.94831074	     10.08481879	    146.47904142	     -0.03110535	      0.91116413	     -0.06016567	     13.73531795	    -14.27756652	     20.23160849	    121.12862978	     16.38459009	     25.96428705	      0.00000000	     35.44445361	      8.10104545	     -5.04890634	     42.15463760	     24.95446594	      0.63202979	      0.00000000	    -12.52533695	     13.05522794	     -0.17389386	    -24.25923172	    -16.22542123	    -45.84077209	     41.76401953	    110.05219869	   -107.22011745	    -59.13027566	   -148.64956608	     51.72158611	     98.94372688
      0.16981130	      7.04192467	     13.09690080	    143.28839208	     -0.04862327	      0.89959915	     -0.06257112	     26.63118743	    -13.69785610	     19.07116281	    102.27406796	     13.73001931	     12.06007235	      0.00000000	     38.07494961	      5.10100588	     -3.58673625	     46.44104675	     26.02988832	      1.68756278	      0.00000000	    -15.24996648	     18.04036642	     -5.55350722	    -23.08265352	    -17.83028514	    -42.69565814	     41.53143647	    112.67837741	   -122.89527371	    -69.15087536	   -164.53316672	     41.93992480	     96.92438973
      0.18867920	      7.71482082	     11.70075293	    136.64543864	     -0.07047463	      0.91494066	     -0.08225838	     35.93945121	    -12.95707708	     18.10558141	     56.32585855	      3.51968449	     -9.77164384	      0.00000000	     35.51759592	      4.73947233	     -4.68678938	     41.27993392	     22.86451980	      0.21272081	      0.00000000	    -18.12163469	     19.26492140	     -6.46368780	    -14.86213228	    -21.17465255	    -39.22592939	     41.38812568	    119.46592152	   -221.28596700	    -75.34463679	   -269.47205866	     34.77215381	     91.73429206
      0.20754720	      6.21592781	      8.28809498	    132.95426552	     -0.11118445	      0.93844964	     -0.09916909	     43.91839755	     -8.64537865	     10.30345132	     27.68820665	     -5.32779129	    -10.05258026	      0.00000000	     31.81398609	      8.82870935	     -4.63355445	     35.29069499	     17.47676464	     -3.82798556	      0.00000000	    -20.93593965	     17.38334920	     -7.79919085	     -1.95185301	    -29.10603642	    -37.10851885	     49.01757261	    116.84404664	   -299.60874270	    -61.47893498	   -344.34747934	     44.82706740	    109.86251062
      0.22641510	      5.44592092	      6.46783026	    130.94990385	     -0.14186395	      0.94040507	     -0.09699543	     53.04817692	     -1.86400060	      3.57123161	     16.67657687	     -8.47175529	     -4.32888025	      0.00000000	     30.86888706	     12.01735300	     -4.71791340	     32.84349710	     14.92765694	     -4.55256691	      0.00000000	    -24.72470044	     18.61010773	    -10.10705188	     12.62434192	    -36.89759385	    -30.51310384	     49.45723695	    117.27396438	   -293.84631492	    -49.12161225	   -337.77709640	     50.47587257	    110.69517667
      0.24528300	      6.63028800	      5.41347545	    128.91780449	     -0.13663542	      0.93708149	     -0.10728651	     65.19282218	      1.27584748	      1.67439931	     22.50673833	     -8.75899966	     -5.40790024	      0.00000000	     29.02397341	     11.86932523	     -5.05451976	     25.87704017	     12.01208178	     -4.10090075	      0.00000000	    -25.57867682	     24.82212992	    -11.53829339	     33.83247200	    -42.57474071	    -13.89012636	     45.58652693	    118.53418246	   -268.15100318	    -39.63823867	   -316.63973381	     48.79834740	    112.93277541
      0.26415090	      6.90597955	      4.79859312	    131.44134946	     -0.14330732	      0.93426836	     -0.11488768	     73.55735701	      3.41291927	      0.10489999	     18.91246804	     -9.23659318	     -3.06517888	      0.00000000	     27.48208869	     11.91156874	     -5.63368473	     21.01325851	      8.85260177	     -2.50166435	      0.00000000	    -27.33908305	     27.01433831	    -12.94195422	     44.83650327	    -43.46405776	     -9.89557838	     43.10712669	    118.52103309	   -261.92302441	    -33.40846241	   -311.62113776	     46.13455684	    113.13937651
      0.28301890	      7.97395041	      4.75084675	    133.94486066	     -0.12996081	      0.93978276	     -0.12626330	     82.04376183	      3.81203446	     -0.66716459	     24.96542367	     -6.95534003	     -2.59009140	      0.00000000	     28.69439639	     10.84935459	     -6.69836961	     21.64758745	      8.76307051	     -1.62854724	      0.00000000	    -28.05464893	     27.39425886	    -14.35500662	     44.81265116	    -43.28613624	    -11.38721007	     43.74452455	    118.12020544	   -262.03036067	    -33.10271921	   -313.72364731	     44.63263807	    112.66351030
      0.30188680	      8.00741409	      5.34029232	    135.82362976	     -0.12454293	      0.94675397	     -0.13764342	     85.39557781	      3.67965683	     -2.76814557	     27.73902752	     -5.24344195	     -1.59033043	      0.00000000	     28.84536243	     10.06965963	     -7.49473873	     23.21978205	      8.72341966	      0.00939649	      0.00000000	    -28.90542468	     27.37175051	    -13.62017279	     37.42680026	    -45.30452359	    -21.65291470	     44.48557270	    116.73906286	   -269.94799920	    -39.08280699	   -320.88321205	     41.13587181	    111.49231445
      0.32075470	      7.98461158	      5.57107549	    136.19282788	     -0.13261774	      0.95211145	     -0.15268305	     83.44367725	      4.76061141	     -3.36269210	     24.61097376	     -5.44741389	     -1.27008195	      0.00000000	     27.58569705	      9.84664622	     -7.29457163	     23.55951936	     10.00369558	     -0.15095470	      0.00000000	    -29.15042395	     26.11992314	    -15.31370501	     30.87217927	    -45.34386983	    -23.05846630	     47.62369536	    116.74510283	   -272.34465680	    -40.13025161	   -320.68345202	     39.47793533	    111.62658939
      0.33962260	      7.00444884	      5.16838446	    136.41398556	     -0.14640154	      0.95439356	     -0.17033286	     80.27868845	      5.05728818	     -2.72023209	     24.78474674	     -5.35557472	     -2.05976276	      0.00000000	     26.32015169	     10.52261157	     -7.41896253	     25.45341770	     11.86429538	     -0.32096315	      0.00000000	    -28.93845854	     23.76964414	    -16.64463734	     19.73024553	    -44.72035323	    -30.03139651	     52.84826233	    116.22733034	   -284.82242540	    -42.48961373	   -325.49503824	     44.83449310	    111.23703594
